# xmcd
#
# Track frame offsets:
#	150
#	23082
#	45314
#	66431
#	95055
#	122400
#	147043
#	172102
#	195459
#	230297
#	249880
#
# Disc length: 3576 seconds
#
# Revision: 3
# Processed by: cddbd v1.5.2PL0 Copyright (c) Steve Scherf et al.
# Submitted via: EasyCDDAExtractor 11.1.0.1
#
DISCID=8a0df60b
DTITLE=Väinö Linna - Täällä pohjantähden alla CD14
DYEAR=2007
DGENRE=Äänikirja
TTITLE0=CD14.01
TTITLE1=CD14.02
TTITLE2=CD14.03
TTITLE3=CD14.04
TTITLE4=CD14.05
TTITLE5=CD14.06
TTITLE6=CD14.07
TTITLE7=CD14.08
TTITLE8=CD14.09
TTITLE9=CD14.10
TTITLE10=CD14.11
EXTD=
EXTT0=
EXTT1=
EXTT2=
EXTT3=
EXTT4=
EXTT5=
EXTT6=
EXTT7=
EXTT8=
EXTT9=
EXTT10=
PLAYORDER=
